<svg width="20" height="20" viewBox="0 0 20 20" fill="none" xmlns="http://www.w3.org/2000/svg">
<path d="M13.491 1.66699H6.50768C3.47435 1.66699 1.66602 3.47533 1.66602 6.50866V13.4837C1.66602 16.5253 3.47435 18.3337 6.50768 18.3337H13.4827C16.516 18.3337 18.3243 16.5253 18.3243 13.492V6.50866C18.3327 3.47533 16.5243 1.66699 13.491 1.66699ZM14.3827 8.30033L12.4577 10.7837C12.216 11.092 11.8743 11.292 11.4827 11.3337C11.091 11.3837 10.7077 11.2753 10.3993 11.0337L8.87435 9.83366C8.81602 9.78366 8.74935 9.78366 8.71602 9.79199C8.68268 9.79199 8.62435 9.80866 8.57435 9.87533L6.59102 12.4503C6.46602 12.6087 6.28268 12.692 6.09935 12.692C5.96602 12.692 5.83268 12.6503 5.71602 12.5587C5.44102 12.3503 5.39102 11.9587 5.59935 11.6837L7.58268 9.10866C7.82435 8.80033 8.16602 8.60033 8.55768 8.55033C8.94102 8.50033 9.33268 8.60866 9.64102 8.85033L11.166 10.0503C11.2243 10.1003 11.2827 10.1003 11.3243 10.092C11.3577 10.092 11.416 10.0753 11.466 10.0087L13.391 7.52533C13.5993 7.25033 13.9993 7.20033 14.266 7.41699C14.541 7.64199 14.591 8.03366 14.3827 8.30033Z" fill="#219B67"/>
</svg>
