<svg width="20" height="20" viewBox="0 0 20 20" fill="none" xmlns="http://www.w3.org/2000/svg">
<circle cx="9.99935" cy="10.0003" r="7.58333" stroke="#242424" stroke-width="1.5"/>
<path d="M12.1957 12.8037C12.4886 13.0965 12.4886 13.5714 12.1957 13.8643C11.9028 14.1572 11.4279 14.1572 11.135 13.8643L12.1957 12.8037ZM8.33203 10.0007L7.8017 10.531L7.27137 10.0007L7.8017 9.47032L8.33203 10.0007ZM11.135 6.13699C11.4279 5.8441 11.9028 5.8441 12.1957 6.13699C12.4886 6.42988 12.4886 6.90476 12.1957 7.19765L11.135 6.13699ZM11.135 13.8643L7.8017 10.531L8.86236 9.47032L12.1957 12.8037L11.135 13.8643ZM7.8017 9.47032L11.135 6.13699L12.1957 7.19765L8.86236 10.531L7.8017 9.47032Z" fill="#242424"/>
</svg>
