<svg width="40" height="40" viewBox="0 0 40 40" fill="none" xmlns="http://www.w3.org/2000/svg">
<path d="M32.6687 23.6647C32.6687 24.7002 32.5499 25.7054 32.3182 26.6704C30.9644 32.4019 25.8131 36.6668 19.6686 36.6668C12.4887 36.6668 6.6665 30.8467 6.6665 23.6647C6.6665 21.3781 7.25674 19.2306 8.29425 17.3651C10.5103 13.3701 14.7712 10.6646 19.6686 10.6646C26.8486 10.6646 32.6687 16.4847 32.6687 23.6647Z" fill="#BBE2ED"/>
<path d="M31.2202 23.403C31.2202 24.3156 31.1154 25.202 30.9119 26.0522C29.7173 31.1068 25.1785 34.866 19.7572 34.866C13.4254 34.866 8.29419 29.7328 8.29419 23.401C8.29419 21.3864 8.81398 19.4907 9.7286 17.8468C11.6827 14.3233 15.442 11.938 19.7592 11.938C26.089 11.94 31.2202 17.0732 31.2202 23.403Z" fill="#A8DBEB"/>
<path d="M22.7389 4.5H16.2378V15.141H22.7389V4.5Z" fill="#A8DBEB"/>
<path d="M26.3208 3.91774C26.3208 4.24008 26.0609 4.49995 25.7365 4.49995H13.236C12.9137 4.49995 12.6538 4.24008 12.6538 3.91774C12.6538 3.59541 12.9137 3.33351 13.236 3.33351H25.7365C26.0609 3.33149 26.3208 3.59339 26.3208 3.91774Z" fill="#7BCCE7"/>
<path d="M31.2786 26.6886C30.0316 31.9547 25.3014 35.8731 19.6545 35.8731C13.0567 35.8731 7.70801 30.5244 7.70801 23.9266C7.70801 21.8274 8.24992 19.8531 9.20281 18.1407C9.62789 17.3772 13.095 18.733 13.6611 18.9425C19.7049 21.1706 24.4371 26.7954 31.2786 26.6886Z" fill="#E73147"/>
<path d="M15.1137 22.1943C15.1137 23.0062 14.4569 23.6649 13.643 23.6649C12.8311 23.6649 12.1724 23.0062 12.1724 22.1943C12.1724 21.3824 12.8311 20.7236 13.643 20.7236C14.4569 20.7236 15.1137 21.3824 15.1137 22.1943Z" fill="#E50041"/>
<path d="M20.1682 15.9066C20.1682 16.6017 19.6041 17.1657 18.9071 17.1657C18.21 17.1657 17.6479 16.6017 17.6479 15.9066C17.6479 15.2096 18.212 14.6455 18.9071 14.6455C19.6041 14.6455 20.1682 15.2096 20.1682 15.9066Z" fill="#E50041"/>
<path d="M26.0568 30.6293C26.0568 31.3263 25.4927 31.8904 24.7977 31.8904C24.1027 31.8904 23.5386 31.3263 23.5386 30.6293C23.5386 29.9343 24.1027 29.3682 24.7977 29.3682C25.4927 29.3702 26.0568 29.9343 26.0568 30.6293Z" fill="#E50041"/>
<path d="M11.8339 27.7948C11.8339 28.4918 11.2718 29.0559 10.5748 29.0559C9.87774 29.0559 9.31567 28.4918 9.31567 27.7948C9.31567 27.0997 9.87976 26.5356 10.5748 26.5356C11.2698 26.5356 11.8339 27.0997 11.8339 27.7948Z" fill="#E50041"/>
<path d="M18.8949 28.3608C18.8949 29.1727 18.2361 29.8314 17.4243 29.8314C16.6124 29.8314 15.9536 29.1727 15.9536 28.3608C15.9536 27.5489 16.6124 26.8901 17.4243 26.8901C18.2361 26.8901 18.8949 27.5489 18.8949 28.3608Z" fill="#E50041"/>
</svg>
