<svg width="21" height="20" viewBox="0 0 21 20" fill="none" xmlns="http://www.w3.org/2000/svg">
<path d="M8.2583 12.2501L9.5083 13.5001L12.8416 10.1667" stroke="#219B67" stroke-width="1.5" stroke-linecap="round" stroke-linejoin="round"/>
<path d="M8.83329 5.00008H12.1666C13.8333 5.00008 13.8333 4.16675 13.8333 3.33341C13.8333 1.66675 13 1.66675 12.1666 1.66675H8.83329C7.99996 1.66675 7.16663 1.66675 7.16663 3.33341C7.16663 5.00008 7.99996 5.00008 8.83329 5.00008Z" stroke="#219B67" stroke-width="1.5" stroke-miterlimit="10" stroke-linecap="round" stroke-linejoin="round"/>
<path d="M13.8333 3.3501C16.6083 3.5001 18 4.5251 18 8.33343V13.3334C18 16.6668 17.1667 18.3334 13 18.3334H8C3.83333 18.3334 3 16.6668 3 13.3334V8.33343C3 4.53343 4.39167 3.5001 7.16667 3.3501" stroke="#219B67" stroke-width="1.5" stroke-miterlimit="10" stroke-linecap="round" stroke-linejoin="round"/>
</svg>
