<svg width="48" height="49" fill="none" xmlns="http://www.w3.org/2000/svg"><g clip-path="url(#prefix__clip0_10232_437318)"><path d="M40.607 5.675V5.67H7.492C6.116 5.67 5 6.983 5 8.602v24.362c0 1.621 1.116 2.932 2.492 2.932h33.115v-.006c1.33-.062 2.393-1.346 2.393-2.926V8.602c0-1.578-1.061-2.865-2.393-2.927z" fill="#005966"/><path d="M40.607 7.55v-.005H7.492C6.116 7.545 5 8.693 5 10.115v21.34c0 1.42 1.116 2.568 2.492 2.568h33.115v-.006c1.33-.054 2.393-1.18 2.393-2.564V10.112c0-1.384-1.063-2.51-2.393-2.562zM29.235 35.898h-10.04v6.1h10.04v-6.1z" fill="#003B45"/><path d="M36.262 42.833c0 .462-.319.838-.71.838h-22.34c-.393 0-.712-.376-.712-.838 0-.462.32-.835.712-.835h22.34c.391 0 .71.373.71.835z" fill="#003B45"/><path d="M38.106 9.476v-.005H9.438c-1.192 0-2.157.997-2.157 2.223v18.478c0 1.226.967 2.223 2.157 2.223h28.668v-.005c1.15-.046 2.072-1.021 2.072-2.218V11.694c0-1.197-.919-2.17-2.072-2.218z" fill="#FEE2BB"/></g><defs><clipPath id="prefix__clip0_10232_437318"><rect x="5" y="5.67" width="38" height="38" rx="8" fill="#fff"/></clipPath></defs></svg>