<svg width="40" height="40" viewBox="0 0 40 40" fill="none" xmlns="http://www.w3.org/2000/svg">
<rect width="40" height="40" rx="8" fill="#CE2828"/>
<path d="M20.89 13.88H13.11C11.4 13.88 10 15.28 10 16.99V28.35C10 29.8 11.04 30.42 12.31 29.71L16.24 27.52C16.66 27.29 17.34 27.29 17.75 27.52L21.68 29.71C22.96 30.41 24 29.8 24 28.35V16.99C24 15.28 22.6 13.88 20.89 13.88Z" fill="white"/>
<path d="M30 13.11V24.47C30 25.92 28.96 26.53 27.69 25.83L25.76 24.75C25.6 24.66 25.5 24.49 25.5 24.31V16.99C25.5 14.45 23.43 12.38 20.89 12.38H16.82C16.45 12.38 16.19 11.99 16.36 11.67C16.88 10.68 17.92 10 19.11 10H26.89C28.6 10 30 11.4 30 13.11Z" fill="white"/>
</svg>
