<svg width="40" height="40" viewBox="0 0 40 40" fill="none" xmlns="http://www.w3.org/2000/svg">
<rect width="40" height="40" rx="8" fill="#8940E9"/>
<path d="M24.83 23.64C25.5 23.2 26.38 23.68 26.38 24.48V25.77C26.38 27.04 25.39 28.4 24.2 28.8L21.01 29.86C20.45 30.05 19.54 30.05 18.99 29.86L15.8 28.8C14.6 28.4 13.62 27.04 13.62 25.77V24.47C13.62 23.68 14.5 23.2 15.16 23.63L17.22 24.97C18.01 25.5 19.01 25.76 20.01 25.76C21.01 25.76 22.01 25.5 22.8 24.97L24.83 23.64Z" fill="white"/>
<path d="M27.98 14.46L21.99 10.53C20.91 9.82 19.13 9.82 18.05 10.53L12.03 14.46C10.1 15.71 10.1 18.54 12.03 19.8L13.63 20.84L18.05 23.72C19.13 24.43 20.91 24.43 21.99 23.72L26.38 20.84L27.75 19.94V23C27.75 23.41 28.09 23.75 28.5 23.75C28.91 23.75 29.25 23.41 29.25 23V18.08C29.65 16.79 29.24 15.29 27.98 14.46Z" fill="white"/>
</svg>
