<svg width="40" height="40" viewBox="0 0 40 40" fill="none" xmlns="http://www.w3.org/2000/svg">
<path d="M12.4667 30.5834L17.6333 34.5834C18.3 35.25 19.8 35.5834 20.8 35.5834H27.1333C29.1333 35.5834 31.3 34.0834 31.8 32.0834L35.8 19.9167C36.6333 17.5834 35.1333 15.5834 32.6333 15.5834H25.9667C24.9667 15.5834 24.1333 14.75 24.3 13.5834L25.1333 8.25003C25.4667 6.75003 24.4667 5.08336 22.9667 4.58336C21.6333 4.08336 19.9667 4.75003 19.3 5.75003L12.4667 15.9167" stroke="#424242" stroke-width="2" stroke-miterlimit="10"/>
<path d="M3.96667 30.5833V14.25C3.96667 11.9166 4.96667 11.0833 7.30001 11.0833H8.96667C11.3 11.0833 12.3 11.9166 12.3 14.25V30.5833C12.3 32.9166 11.3 33.75 8.96667 33.75H7.30001C4.96667 33.75 3.96667 32.9166 3.96667 30.5833Z" stroke="#424242" stroke-width="2" stroke-linecap="round" stroke-linejoin="round"/>
</svg>
