<svg width="24" height="24" viewBox="0 0 24 24" fill="none" xmlns="http://www.w3.org/2000/svg">
<path d="M16.1401 2.96053L7.11012 5.96053C1.04012 7.99053 1.04012 11.3005 7.11012 13.3205L9.79012 14.2105L10.6801 16.8905C12.7001 22.9605 16.0201 22.9605 18.0401 16.8905L21.0501 7.87053C22.3901 3.82053 20.1901 1.61053 16.1401 2.96053ZM16.4601 8.34053L12.6601 12.1605C12.5101 12.3105 12.3201 12.3805 12.1301 12.3805C11.9401 12.3805 11.7501 12.3105 11.6001 12.1605C11.3101 11.8705 11.3101 11.3905 11.6001 11.1005L15.4001 7.28053C15.6901 6.99053 16.1701 6.99053 16.4601 7.28053C16.7501 7.57053 16.7501 8.05053 16.4601 8.34053Z" fill="#07375C"/>
</svg>
