<svg width="16" height="16" viewBox="0 0 16 16" fill="none" xmlns="http://www.w3.org/2000/svg">
<path d="M14 3.98665C11.78 3.76665 9.54667 3.65332 7.32 3.65332C6 3.65332 4.68 3.71999 3.36 3.85332L2 3.98665" stroke="#808080" stroke-linecap="round" stroke-linejoin="round"/>
<path d="M5.66602 3.31331L5.81268 2.43998C5.91935 1.80665 5.99935 1.33331 7.12602 1.33331H8.87268C9.99935 1.33331 10.086 1.83331 10.186 2.44665L10.3327 3.31331" stroke="#808080" stroke-linecap="round" stroke-linejoin="round"/>
<path d="M12.5669 6.09332L12.1336 12.8067C12.0603 13.8533 12.0003 14.6667 10.1403 14.6667H5.86026C4.00026 14.6667 3.94026 13.8533 3.86693 12.8067L3.43359 6.09332" stroke="#808080" stroke-linecap="round" stroke-linejoin="round"/>
<path d="M6.88672 11H9.10672" stroke="#808080" stroke-linecap="round" stroke-linejoin="round"/>
<path d="M6.33398 8.33331H9.66732" stroke="#808080" stroke-linecap="round" stroke-linejoin="round"/>
</svg>
