<svg width="24" height="24" viewBox="0 0 24 24" fill="none" xmlns="http://www.w3.org/2000/svg">
<path d="M2.62 15.75V8.25C2.62 7.48 2.65 6.79 2.73 6.18C3.1 2.89 4.65 2 8.88 2H15.13C19.35 2 20.91 2.89 21.27 6.18C21.36 6.79 21.38 7.48 21.38 8.25V15.75C21.38 16.52 21.35 17.21 21.27 17.83C20.9 21.11 19.35 22 15.12 22H8.88C4.66 22 3.1 21.11 2.74 17.83C2.65 17.21 2.62 16.52 2.62 15.75Z" stroke="#292D32" stroke-width="1.5" stroke-linecap="round" stroke-linejoin="round"/>
<path d="M21.23 8.91992H17.13" stroke="#292D32" stroke-width="1.5" stroke-linecap="round" stroke-linejoin="round"/>
<path d="M6.87002 8.91992H2.77002" stroke="#292D32" stroke-width="1.5" stroke-linecap="round" stroke-linejoin="round"/>
<path d="M17.13 8.92012C17.13 10.0501 16.21 10.9701 15.08 10.9701H8.92C8.36 10.9701 7.84 10.7401 7.47 10.3601C7.1 10.0001 6.87 9.49012 6.87 8.92012C6.87 7.79012 7.79 6.87012 8.92 6.87012H15.07C15.63 6.87012 16.15 7.10012 16.52 7.48012C16.9 7.85012 17.13 8.36012 17.13 8.92012Z" stroke="#292D32" stroke-width="1.5" stroke-linecap="round" stroke-linejoin="round"/>
</svg>
