<svg width="22" height="22" viewBox="0 0 22 22" fill="none" xmlns="http://www.w3.org/2000/svg">
<path d="M14.97 8C14.97 11.87 11.84 15 7.96997 15C7.64997 15 7.33997 14.98 7.03997 14.93C3.60997 14.48 0.969971 11.55 0.969971 8C0.969971 4.13 4.09997 1 7.96997 1C11.52 1 14.45 3.64 14.9 7.07C14.95 7.37 14.97 7.68 14.97 8Z" stroke="#292D32" stroke-width="1.5" stroke-linecap="round" stroke-linejoin="round"/>
<path d="M20.97 13.9998C20.97 17.8698 17.84 20.9998 13.97 20.9998C10.42 20.9998 7.49004 18.3598 7.04004 14.9298C7.34004 14.9798 7.65004 14.9998 7.97004 14.9998C11.84 14.9998 14.97 11.8698 14.97 7.99982C14.97 7.67982 14.95 7.36982 14.9 7.06982C18.33 7.51982 20.97 10.4498 20.97 13.9998Z" stroke="#292D32" stroke-width="1.5" stroke-linecap="round" stroke-linejoin="round"/>
<path d="M13.1199 13.1201L14.4299 14.4101" stroke="#292D32" stroke-width="1.5" stroke-linecap="round" stroke-linejoin="round"/>
<path d="M15.97 11L14.97 10" stroke="#292D32" stroke-width="1.5" stroke-linecap="round" stroke-linejoin="round"/>
<path d="M10.97 16L9.96997 15" stroke="#292D32" stroke-width="1.5" stroke-linecap="round" stroke-linejoin="round"/>
</svg>
