<svg width="24" height="24" viewBox="0 0 24 24" fill="none" xmlns="http://www.w3.org/2000/svg">
<path d="M8.94005 16.9304L6.11003 14.1003C5.17003 13.1603 5.17003 12.2103 6.11003 11.2703L10.83 6.55029L16.02 11.7403C16.28 12.0003 16.28 12.4204 16.02 12.6804L11.77 16.9304C10.83 17.8704 9.88005 17.8704 8.94005 16.9304Z" stroke="#292D32" stroke-width="1.5" stroke-miterlimit="10" stroke-linecap="round" stroke-linejoin="round"/>
<path d="M9.88013 5.6001L10.8301 6.5401" stroke="#292D32" stroke-width="1.5" stroke-miterlimit="10" stroke-linecap="round" stroke-linejoin="round"/>
<path d="M5.43994 12.6399L16.1299 12.1699" stroke="#292D32" stroke-width="1.5" stroke-miterlimit="10" stroke-linecap="round" stroke-linejoin="round"/>
<path d="M17.3 14.8101C17.3 14.8101 15.99 16.23 15.99 17.1C15.99 17.82 16.58 18.41 17.3 18.41C18.02 18.41 18.61 17.82 18.61 17.1C18.6 16.23 17.3 14.8101 17.3 14.8101Z" stroke="#292D32" stroke-width="1.5" stroke-linecap="round" stroke-linejoin="round"/>
<path d="M22 15V9C22 4 20 2 15 2H9C4 2 2 4 2 9V15C2 20 4 22 9 22H15C20 22 22 20 22 15Z" stroke="#292D32" stroke-width="1.5" stroke-linecap="round" stroke-linejoin="round"/>
</svg>
