<svg width="24" height="24" viewBox="0 0 24 24" fill="none" xmlns="http://www.w3.org/2000/svg">
<path d="M1.99609 8.5H11.4961" stroke="#292D32" stroke-width="1.5" stroke-miterlimit="10" stroke-linecap="round" stroke-linejoin="round"/>
<path d="M5.99609 16.5H7.99609" stroke="#292D32" stroke-width="1.5" stroke-miterlimit="10" stroke-linecap="round" stroke-linejoin="round"/>
<path d="M10.4961 16.5H14.4961" stroke="#292D32" stroke-width="1.5" stroke-miterlimit="10" stroke-linecap="round" stroke-linejoin="round"/>
<path d="M21.9961 12.03V16.11C21.9961 19.62 21.1061 20.5 17.5561 20.5H6.43609C2.88609 20.5 1.99609 19.62 1.99609 16.11V7.89C1.99609 4.38 2.88609 3.5 6.43609 3.5H14.4961" stroke="#292D32" stroke-width="1.5" stroke-linecap="round" stroke-linejoin="round"/>
<path d="M19.0764 4.13006L15.3664 7.84006C15.2264 7.98006 15.0864 8.26006 15.0564 8.46006L14.8564 9.88006C14.7864 10.3901 15.1464 10.7501 15.6564 10.6801L17.0764 10.4801C17.2764 10.4501 17.5564 10.3101 17.6964 10.1701L21.4064 6.46006C22.0464 5.82006 22.3464 5.08006 21.4064 4.14006C20.4564 3.19006 19.7164 3.49006 19.0764 4.13006Z" stroke="#292D32" stroke-width="1.5" stroke-miterlimit="10" stroke-linecap="round" stroke-linejoin="round"/>
<path d="M18.5459 4.65991C18.8659 5.78991 19.7459 6.66991 20.8659 6.97991" stroke="#292D32" stroke-width="1.5" stroke-miterlimit="10" stroke-linecap="round" stroke-linejoin="round"/>
</svg>
