<svg width="24" height="24" viewBox="0 0 24 24" fill="none" xmlns="http://www.w3.org/2000/svg">
<path d="M16.6102 19.9999C17.9502 20.0099 19.2402 19.5099 20.2302 18.6099C23.5002 15.7499 21.7502 10.0099 17.4402 9.46995C15.9002 0.129949 2.43022 3.66995 5.62022 12.5599" stroke="#292D32" stroke-width="1.5" stroke-miterlimit="10" stroke-linecap="round" stroke-linejoin="round"/>
<path d="M7.27986 12.9701C6.74986 12.7001 6.15986 12.5601 5.56986 12.5701C0.909864 12.9001 0.919864 19.6801 5.56986 20.0101" stroke="#292D32" stroke-width="1.5" stroke-miterlimit="10" stroke-linecap="round" stroke-linejoin="round"/>
<path d="M15.8198 9.88998C16.3398 9.62998 16.8998 9.48998 17.4798 9.47998" stroke="#292D32" stroke-width="1.5" stroke-miterlimit="10" stroke-linecap="round" stroke-linejoin="round"/>
<path d="M9.97022 20L7.97021 22" stroke="#292D32" stroke-width="1.5" stroke-miterlimit="10" stroke-linecap="round" stroke-linejoin="round"/>
<path d="M13.9702 20L11.9702 22" stroke="#292D32" stroke-width="1.5" stroke-miterlimit="10" stroke-linecap="round" stroke-linejoin="round"/>
<path d="M13.9702 16L11.9702 18" stroke="#292D32" stroke-width="1.5" stroke-miterlimit="10" stroke-linecap="round" stroke-linejoin="round"/>
<path d="M9.97022 16L7.97021 18" stroke="#292D32" stroke-width="1.5" stroke-miterlimit="10" stroke-linecap="round" stroke-linejoin="round"/>
</svg>
