<svg width="24" height="24" viewBox="0 0 24 24" fill="none" xmlns="http://www.w3.org/2000/svg">
<path d="M20.0301 2.47998L4.18005 18.33" stroke="#292D32" stroke-width="1.5" stroke-linecap="round" stroke-linejoin="round"/>
<path d="M5.24996 13.0002C4.82996 12.0302 4.57996 10.9802 4.57996 9.90017C4.57996 4.99017 8.79996 1.12017 13.6 2.17017C15.06 2.49017 16.36 3.27017 17.36 4.35017" stroke="#292D32" stroke-width="1.5" stroke-linecap="round" stroke-linejoin="round"/>
<path d="M19.06 7.2998C20.28 11.1798 18.31 15.0798 15.52 16.8698V18.0298C15.52 18.3198 15.62 18.9898 14.62 18.9898H9.42003C8.39003 18.9898 8.52003 18.5598 8.52003 18.0298V16.8698C8.04003 16.5698 7.59003 16.1998 7.16003 15.7698" stroke="#292D32" stroke-width="1.5" stroke-linecap="round" stroke-linejoin="round"/>
<path d="M8.5 22.0002C10.79 21.3502 13.21 21.3502 15.5 22.0002" stroke="#292D32" stroke-width="1.5" stroke-linecap="round" stroke-linejoin="round"/>
</svg>
