<svg width="24" height="24" viewBox="0 0 24 24" fill="none" xmlns="http://www.w3.org/2000/svg">
<path d="M6.28016 21.9998C8.00328 21.9998 9.40016 20.6029 9.40016 18.8798C9.40016 17.1566 8.00328 15.7598 6.28016 15.7598C4.55703 15.7598 3.16016 17.1566 3.16016 18.8798C3.16016 20.6029 4.55703 21.9998 6.28016 21.9998Z" stroke="#292D32" stroke-width="1.5" stroke-linecap="round" stroke-linejoin="round"/>
<path d="M20.8399 16.7998V4.59985C20.8399 1.99985 19.2099 1.63985 17.5599 2.08985L11.3199 3.78985C10.1799 4.09985 9.3999 4.99985 9.3999 6.29985V8.46985V9.92985V18.8699" stroke="#292D32" stroke-width="1.5" stroke-linecap="round" stroke-linejoin="round"/>
<path d="M17.7201 19.9202C19.4432 19.9202 20.8401 18.5233 20.8401 16.8002C20.8401 15.077 19.4432 13.6802 17.7201 13.6802C15.997 13.6802 14.6001 15.077 14.6001 16.8002C14.6001 18.5233 15.997 19.9202 17.7201 19.9202Z" stroke="#292D32" stroke-width="1.5" stroke-linecap="round" stroke-linejoin="round"/>
<path d="M9.3999 9.5199L20.8399 6.3999" stroke="#292D32" stroke-width="1.5" stroke-linecap="round" stroke-linejoin="round"/>
</svg>
