<svg width="24" height="24" viewBox="0 0 24 24" fill="none" xmlns="http://www.w3.org/2000/svg">
<path d="M5.47997 18.4901V15.5701C5.47997 14.6001 6.23996 13.73 7.31996 13.73C8.28996 13.73 9.15996 14.4901 9.15996 15.5701V18.3801C9.15996 20.3301 7.53995 21.9501 5.58995 21.9501C3.63995 21.9501 2.01994 20.3201 2.01994 18.3801V12.22C1.90994 6.60003 6.34996 2.05005 11.97 2.05005C17.59 2.05005 22.0199 6.60005 22.0199 12.11V18.2701C22.0199 20.2201 20.4 21.8401 18.45 21.8401C16.5 21.8401 14.88 20.2201 14.88 18.2701V15.4601C14.88 14.4901 15.64 13.6201 16.72 13.6201C17.69 13.6201 18.56 14.3801 18.56 15.4601V18.4901" stroke="#292D32" stroke-width="1.5" stroke-linecap="round" stroke-linejoin="round"/>
<path d="M15.53 9.11999H14.72C14.5 9.11999 14.29 9.25 14.19 9.44L13.44 10.94C13.33 11.16 13.02 11.16 12.91 10.94L11.07 7.27002C10.96 7.06002 10.66 7.05001 10.55 7.26001L9.70996 8.80999C9.60996 8.99999 9.40997 9.11999 9.18997 9.11999H8.45996" stroke="#292D32" stroke-width="1.5" stroke-linecap="round" stroke-linejoin="round"/>
</svg>
