<svg width="24" height="24" viewBox="0 0 24 24" fill="none" xmlns="http://www.w3.org/2000/svg">
<path d="M11.9702 22C17.4931 22 21.9702 17.5228 21.9702 12C21.9702 6.47715 17.4931 2 11.9702 2C6.44737 2 1.97021 6.47715 1.97021 12C1.97021 17.5228 6.44737 22 11.9702 22Z" stroke="#292D32" stroke-width="1.5" stroke-linecap="round" stroke-linejoin="round"/>
<path d="M10.72 14.53V9.47005C10.72 8.99005 10.52 8.80005 10.01 8.80005H8.71C8.2 8.80005 8 8.99005 8 9.47005V14.53C8 15.01 8.2 15.2 8.71 15.2H10C10.52 15.2 10.72 15.01 10.72 14.53Z" stroke="#292D32" stroke-width="1.5" stroke-linecap="round" stroke-linejoin="round"/>
<path d="M16 14.53V9.47005C16 8.99005 15.8 8.80005 15.29 8.80005H14C13.49 8.80005 13.29 8.99005 13.29 9.47005V14.53C13.29 15.01 13.49 15.2 14 15.2H15.29C15.8 15.2 16 15.01 16 14.53Z" stroke="#292D32" stroke-width="1.5" stroke-linecap="round" stroke-linejoin="round"/>
</svg>
