<svg width="24" height="24" viewBox="0 0 24 24" fill="none" xmlns="http://www.w3.org/2000/svg">
<path d="M20 11C20 15.97 15.97 20 11 20C6.03 20 2 15.97 2 11C2 6.03 6.03 2 11 2" stroke="#292D32" stroke-width="1.5" stroke-linecap="round" stroke-linejoin="round"/>
<path d="M13.5 6.13008C13.15 5.03008 13.56 3.66008 14.72 3.29008C15.33 3.09008 16.08 3.26008 16.51 3.85008C16.91 3.24008 17.69 3.10008 18.29 3.29008C19.45 3.66008 19.86 5.03008 19.51 6.13008C18.96 7.88008 17.04 8.79008 16.51 8.79008C15.97 8.79008 14.07 7.90008 13.5 6.13008Z" stroke="#292D32" stroke-width="1.5" stroke-linecap="round" stroke-linejoin="round"/>
<path d="M18.9299 20.6898C19.4599 22.2898 20.6699 22.4498 21.5999 21.0498C22.4499 19.7698 21.8899 18.7198 20.3499 18.7198C19.2099 18.7098 18.5699 19.5998 18.9299 20.6898Z" stroke="#292D32" stroke-width="1.5" stroke-linecap="round" stroke-linejoin="round"/>
</svg>
