<svg width="24" height="24" viewBox="0 0 24 24" fill="none" xmlns="http://www.w3.org/2000/svg">
<path d="M21 11.5C21 16.75 16.75 21 11.5 21C6.25 21 2 16.75 2 11.5C2 6.25 6.25 2 11.5 2" stroke="#292D32" stroke-width="1.5" stroke-linecap="round" stroke-linejoin="round"/>
<path d="M22 22L20 20" stroke="#292D32" stroke-width="1.5" stroke-linecap="round" stroke-linejoin="round"/>
<path d="M14.5 6.13008C14.15 5.03008 14.56 3.66008 15.72 3.29008C16.33 3.09008 17.08 3.26008 17.51 3.85008C17.91 3.24008 18.69 3.10008 19.29 3.29008C20.45 3.66008 20.86 5.03008 20.51 6.13008C19.96 7.88008 18.04 8.79008 17.51 8.79008C16.97 8.79008 15.07 7.90008 14.5 6.13008Z" stroke="#292D32" stroke-width="1.5" stroke-linecap="round" stroke-linejoin="round"/>
</svg>
